<svg version="1" xmlns="http://www.w3.org/2000/svg" width="360" height="360" viewBox="0 0 270.000000 270.000000"><path d="M160.7 3.6c-.1.1-3.8.4-8.2.7C107 7.8 73.1 28.6 50 67.3c-7.1 12-13.5 27.5-15.5 37.6-.2 1.1-.6 2.4-.8 2.9-.3.4-.8 2.7-1.1 5.2-.3 2.5-1 7-1.5 10-2.2 13.5-.6 45 3 58.5.6 2.2 1.2 4.7 1.4 5.5 1.5 7.5 9.6 25.4 15.3 33.6 18.3 26.9 43.9 41.4 79.7 45 12 1.2 36.4.7 54-1.1 11.2-1.1 24.1-4.3 32.5-8.1 9.7-4.3 15.5-16 19.5-38.9.8-4.5.9-25.5.1-26.2-.4-.4-3 .5-5.9 1.9-11.7 6-24.6 10.1-35.7 11.4-1.9.3-4.6.7-6 1-1.4.3-8.8.7-16.5.9-13.2.3-15.8.1-31.4-3.1-7.7-1.6-18.2-8.8-16.6-11.4.3-.5 2.9-1.6 5.8-2.6 17.3-5.7 41.9-18.9 56.9-30.6 13-10.1 26-23.9 34.6-36.5 8.1-11.9 13.9-25.3 16.7-38.3 1.4-6.5 1.5-28.2.1-34.3-2.1-9.3-7.4-19.6-12.9-25.1-9.7-9.7-28.6-18.1-45.3-20.2-4.8-.6-19.2-1.2-19.7-.8zm3.3 53.2c6.9 2.8 9.5 8.2 8.7 18.5-.9 13.1-6.5 24.8-17.9 37.1-7.2 7.9-20.9 18.8-30 23.9-10.6 5.9-24.4 9.7-26.7 7.4-1.8-1.8-1.3-17.1.9-27.9 3.8-18.6 11-32.5 23-44.8 7.8-7.9 17.1-13.6 24.1-14.7 1.9-.2 3.5-.6 3.7-.8.7-.7 11.9.3 14.2 1.3z"/></svg>